
<svg width="18" height="14" viewBox="-2 -4 22 22" fill="none" xmlns="http://www.w3.org/2000/svg">
<path d="M0.193726 11.6089C0.193726 12.1726 0.417665 12.7133 0.816279 13.1119C1.21489 13.5105 1.75553 13.7344 2.31926 13.7344H15.0724C15.6362 13.7344 16.1768 13.5105 16.5754 13.1119C16.974 12.7133 17.198 12.1726 17.198 11.6089V5.7637H0.193726V11.6089ZM2.69882 8.72426C2.69882 8.42227 2.81878 8.13264 3.03233 7.9191C3.24587 7.70555 3.5355 7.58559 3.83749 7.58559H5.65938C5.96137 7.58559 6.251 7.70555 6.46454 7.9191C6.67809 8.13264 6.79805 8.42227 6.79805 8.72426V9.48338C6.79805 9.78538 6.67809 10.075 6.46454 10.2885C6.251 10.5021 5.96137 10.6221 5.65938 10.6221H3.83749C3.5355 10.6221 3.24587 10.5021 3.03233 10.2885C2.81878 10.075 2.69882 9.78538 2.69882 9.48338V8.72426ZM15.0724 0.373962H2.31926C1.75553 0.373962 1.21489 0.597902 0.816279 0.996516C0.417665 1.39513 0.193726 1.93577 0.193726 2.49949V3.48635H17.198V2.49949C17.198 1.93577 16.974 1.39513 16.5754 0.996516C16.1768 0.597902 15.6362 0.373962 15.0724 0.373962Z" fill="#FEFEFE"/>
</svg>
