<svg width="16" height="21" viewBox="-3 -0.5 22 22" fill="none"
  xmlns="http://www.w3.org/2000/svg">
  <path d="M14.396 0.688354C14.6604 0.688389 14.9157 0.78548 15.1133 0.961212C15.3109 1.13694 15.4372 1.37909 15.4681 1.64173L15.4757 1.76806V19.0433C15.4754 19.3185 15.37 19.5832 15.1811 19.7833C14.9922 19.9834 14.734 20.1038 14.4593 20.1199C14.1845 20.1361 13.914 20.0467 13.703 19.87C13.492 19.6934 13.3563 19.4429 13.3238 19.1696L13.3163 19.0433V13.6448H12.2366C11.9721 13.6447 11.7169 13.5476 11.5193 13.3719C11.3216 13.1962 11.1954 12.954 11.1644 12.6914L11.1569 12.5651V6.08686C11.1569 3.70072 12.7764 0.688354 14.396 0.688354ZM7.91777 0.688354C8.18223 0.688389 8.43747 0.78548 8.6351 0.961212C8.83272 1.13694 8.95897 1.37909 8.98992 1.64173L8.99747 1.76806V7.16656C8.99735 8.12412 8.67915 9.05451 8.09287 9.81159C7.50658 10.5687 6.68543 11.1096 5.75837 11.3493V19.0433C5.75806 19.3185 5.65269 19.5832 5.46378 19.7833C5.27486 19.9834 5.01667 20.1038 4.74194 20.1199C4.46722 20.1361 4.19671 20.0467 3.98568 19.87C3.77465 19.6934 3.63903 19.4429 3.60653 19.1696L3.59897 19.0433V11.3493C2.7087 11.1192 1.91507 10.611 1.3335 9.89876C0.751926 9.1865 0.412736 8.30729 0.365262 7.38898L0.359863 7.16656V1.76806C0.360169 1.49286 0.465543 1.22817 0.654458 1.02806C0.843372 0.827955 1.10157 0.707535 1.37629 0.691408C1.65101 0.67528 1.92152 0.764662 2.13255 0.941291C2.34358 1.11792 2.47921 1.36846 2.51171 1.64173L2.51927 1.76806V7.16656C2.51928 7.54561 2.61906 7.91797 2.80858 8.24623C2.99811 8.57449 3.2707 8.84708 3.59897 9.03661V1.76806C3.59927 1.49286 3.70465 1.22817 3.89356 1.02806C4.08248 0.827955 4.34067 0.707535 4.61539 0.691408C4.89011 0.67528 5.16062 0.764662 5.37166 0.941291C5.58269 1.11792 5.71831 1.36846 5.75081 1.64173L5.75837 1.76806L5.75945 9.03661C6.06075 8.86244 6.3155 8.61803 6.50199 8.3242C6.68848 8.03037 6.80119 7.69581 6.83051 7.34903L6.83807 7.16656V1.76806C6.83807 1.4817 6.95183 1.20707 7.15431 1.00459C7.35679 0.802108 7.63142 0.688354 7.91777 0.688354Z" fill="#FEFEFE"/>
</svg>
