<svg width="13" height="23" viewBox="-3 0 23 23" fill="none"
  xmlns="http://www.w3.org/2000/svg">
  <path d="M8.77282 11.5134V13.4785M1.89526 1.68835L9.35054 3.1798C10.0186 3.31334 10.6199 3.67421 11.0519 4.20102C11.484 4.72782 11.7202 5.38804 11.7203 6.06936V20.1399C11.7203 20.2852 11.6879 20.4286 11.6257 20.56C11.5635 20.6913 11.4729 20.8071 11.3606 20.8992C11.2482 20.9913 11.1167 21.0574 10.9758 21.0925C10.8348 21.1277 10.6878 21.1312 10.5453 21.1027L3.47514 19.6899C3.02951 19.6008 2.62854 19.36 2.34048 19.0086C2.05242 18.6571 1.89508 18.2166 1.89526 17.7622V1.68835Z" stroke="white" stroke-width="1.94334" stroke-linecap="round" stroke-linejoin="round"/>
  <path d="M1.89526 1.68835H12.7029C13.4846 1.68835 14.2343 1.9989 14.7871 2.55166C15.3398 3.10443 15.6504 3.85415 15.6504 4.63588V18.391C15.6504 18.6516 15.5469 18.9015 15.3626 19.0857C15.1784 19.27 14.9285 19.3735 14.6679 19.3735H11.7203" stroke="white" stroke-width="1.94334" stroke-linecap="round" stroke-linejoin="round"/>
</svg>
