
<svg width="6" height="21" viewBox="-7 0 20 21" fill="none" xmlns="http://www.w3.org/2000/svg">
<path d="M5.71536 7.13086L0.329173 7.7936L0.136306 8.6711L1.19473 8.86277C1.88623 9.02441 2.02265 9.26919 1.87211 9.94579L0.136306 17.9541C-0.319991 20.0255 0.383271 21 2.03676 21C3.31862 21 4.80747 20.4181 5.4825 19.6191L5.68948 18.6585C5.21907 19.0649 4.53228 19.2265 4.07598 19.2265C3.42917 19.2265 3.19396 18.7808 3.36096 17.9957L5.71536 7.13086ZM5.88 2.30921C5.88 2.92166 5.63219 3.50901 5.1911 3.94208C4.75001 4.37514 4.15176 4.61843 3.52795 4.61843C2.90415 4.61843 2.3059 4.37514 1.86481 3.94208C1.42371 3.50901 1.17591 2.92166 1.17591 2.30921C1.17591 1.69677 1.42371 1.10942 1.86481 0.676353C2.3059 0.243291 2.90415 0 3.52795 0C4.15176 0 4.75001 0.243291 5.1911 0.676353C5.63219 1.10942 5.88 1.69677 5.88 2.30921Z" fill="#FEFEFE"/>
</svg>
