<svg width="18" height="21" viewBox="-2 -0.5 22 22" fill="none"
  xmlns="http://www.w3.org/2000/svg">
  <path d="M6.50791 0.688452C6.39942 0.704584 6.29582 0.744392 6.20445 0.805053C6.20445 0.805053 5.25893 1.40001 4.24242 2.04356C3.2259 2.68636 2.09502 3.39493 1.83641 3.53844C1.82046 3.54536 1.80475 3.55284 1.78932 3.56086C0.850535 4.14013 0.655453 5.08639 0.621818 5.61707C0.619576 5.64173 0.621818 5.66191 0.621818 5.68807C0.613596 5.88689 0.621818 6.01471 0.621818 6.01471V15.7785C0.621818 17.1971 2.2759 17.8796 3.84553 17.8796C4.36873 17.8796 4.89194 17.7951 5.3404 17.6456C5.63938 17.4961 5.8539 17.1971 5.8539 16.8982V9.05006C5.8539 7.33095 6.22762 6.52371 7.34878 5.85102C7.64775 5.70153 10.7825 3.53769 10.7825 3.53769C10.932 3.3882 11.086 3.08474 11.086 2.86051V2.79025C11.086 2.49128 10.9365 2.26256 10.7123 2.11307C10.488 1.96358 10.189 1.96358 9.96481 2.11307C9.89007 2.18782 5.33069 5.25755 4.35902 5.78076C3.38735 6.37871 2.4807 6.52296 2.25647 6.22399C2.18696 6.15448 2.12641 5.94146 2.1167 5.73367V5.68658C2.11744 5.48328 2.16977 5.10059 2.58385 4.84571C3.00391 4.61176 4.04659 3.94579 5.06012 3.30449C5.4884 3.03317 5.54147 3.00402 5.87707 2.79025C5.92124 2.97285 6.03256 3.13211 6.18886 3.23634C6.34516 3.34057 6.53497 3.38211 6.72052 3.35271C6.90607 3.32331 7.07374 3.22512 7.19016 3.07767C7.30658 2.93023 7.36321 2.74436 7.34878 2.55705V1.43589C7.34961 1.32936 7.32766 1.22387 7.2844 1.12651C7.24114 1.02915 7.17756 0.942164 7.09793 0.871383C7.0183 0.800602 6.92446 0.747662 6.8227 0.716112C6.72094 0.684562 6.61361 0.675131 6.50791 0.688452ZM12.4874 3.30449C12.3686 3.32426 12.2562 3.37247 12.16 3.44501C12.16 3.44501 8.39743 5.97659 7.74567 6.41085C7.73777 6.41865 7.73004 6.42662 7.72249 6.43477C7.18135 6.84063 6.8607 7.32347 6.71794 7.76521C6.63795 8.01441 6.59858 8.27486 6.60134 8.53657V8.77051C6.60026 8.79367 6.60026 8.81687 6.60134 8.84003V17.8796C6.60134 19.2997 8.23673 20.1219 9.73161 20.1219C10.4043 20.1219 11.0112 19.9769 11.4597 19.6779C12.3566 19.1547 16.6918 15.7778 16.6918 15.7778C16.916 15.6283 17.0655 15.4175 17.0655 15.1933V5.47655C17.0655 5.10283 16.9205 4.8786 16.6215 4.72911C16.3973 4.57962 16.0288 4.64988 15.8046 4.79937C14.6087 5.6963 11.3894 8.22862 10.642 8.67708C9.59558 9.27504 8.60971 9.42452 8.23599 9.0508C8.0865 8.90132 8.09621 8.7608 8.09621 8.53657C8.1007 8.40801 8.1149 8.29739 8.1433 8.20919C8.18516 8.07913 8.27037 7.91918 8.58654 7.67253C8.60148 7.66057 8.59401 7.66131 8.60971 7.64936C9.1501 7.28834 10.8027 6.16195 11.8805 5.42946C11.9416 5.59328 12.0581 5.7305 12.2099 5.81727C12.3617 5.90405 12.539 5.93487 12.7112 5.90439C12.8833 5.8739 13.0394 5.78404 13.1521 5.65043C13.2649 5.51682 13.3272 5.34791 13.3283 5.17309V4.05193C13.3291 3.94539 13.3072 3.83991 13.2639 3.74255C13.2207 3.64519 13.1571 3.5582 13.0774 3.48742C12.9978 3.41664 12.904 3.3637 12.8022 3.33215C12.7005 3.3006 12.5931 3.29117 12.4874 3.30449ZM15.5706 8.77051V10.2654L11.8334 13.161V11.6661L15.5706 8.77051Z" fill="#FEFEFE"/>
</svg>
