<svg width="20" height="5" viewBox="-1 -8.5 22 22" fill="none"
  xmlns="http://www.w3.org/2000/svg">
  <path d="M2.35985 0.844177C1.84444 0.844177 1.35014 1.04892 0.985696 1.41337C0.621248 1.77782 0.416504 2.27211 0.416504 2.78752C0.416504 3.30293 0.621248 3.79722 0.985696 4.16167C1.35014 4.52612 1.84444 4.73086 2.35985 4.73086C2.87525 4.73086 3.36955 4.52612 3.734 4.16167C4.09845 3.79722 4.30319 3.30293 4.30319 2.78752C4.30319 2.27211 4.09845 1.77782 3.734 1.41337C3.36955 1.04892 2.87525 0.844177 2.35985 0.844177ZM8.18988 2.78752C8.18988 2.27211 8.39462 1.77782 8.75907 1.41337C9.12351 1.04892 9.61781 0.844177 10.1332 0.844177C10.6486 0.844177 11.1429 1.04892 11.5074 1.41337C11.8718 1.77782 12.0766 2.27211 12.0766 2.78752C12.0766 3.30293 11.8718 3.79722 11.5074 4.16167C11.1429 4.52612 10.6486 4.73086 10.1332 4.73086C9.61781 4.73086 9.12351 4.52612 8.75907 4.16167C8.39462 3.79722 8.18988 3.30293 8.18988 2.78752ZM15.9632 2.78752C15.9632 2.27211 16.168 1.77782 16.5324 1.41337C16.8969 1.04892 17.3912 0.844177 17.9066 0.844177C18.422 0.844177 18.9163 1.04892 19.2807 1.41337C19.6452 1.77782 19.8499 2.27211 19.8499 2.78752C19.8499 3.30293 19.6452 3.79722 19.2807 4.16167C18.9163 4.52612 18.422 4.73086 17.9066 4.73086C17.3912 4.73086 16.8969 4.52612 16.5324 4.16167C16.168 3.79722 15.9632 3.30293 15.9632 2.78752Z" fill="white"/>
</svg>
