<svg width="17" height="20" viewBox="-2.5 -1 22 22" fill="none"
  xmlns="http://www.w3.org/2000/svg">
  <path d="M3.47181 5.19552C4.54511 5.19552 5.41518 4.32544 5.41518 3.25215C5.41518 2.17885 4.54511 1.30878 3.47181 1.30878C2.39852 1.30878 1.52844 2.17885 1.52844 3.25215C1.52844 4.32544 2.39852 5.19552 3.47181 5.19552Z" fill="white" stroke="white" stroke-width="1.56793" stroke-linecap="round" stroke-linejoin="round"/>
  <path d="M12.2149 5.19552C13.2881 5.19552 14.1582 4.32544 14.1582 3.25215C14.1582 2.17885 13.2881 1.30878 12.2149 1.30878C11.1416 1.30878 10.2715 2.17885 10.2715 3.25215C10.2715 4.32544 11.1416 5.19552 12.2149 5.19552Z" fill="white" stroke="white" stroke-width="1.56793" stroke-linecap="round" stroke-linejoin="round"/>
  <path d="M1.04248 8.11029H5.90091L4.92922 18.7988H2.01417L1.04248 8.11029ZM9.78765 8.11029H14.6461L15.6178 13.4546H14.1602L13.6744 18.7988H10.7593L10.2735 13.4546H8.81596L9.78765 8.11029Z" fill="white" stroke="white" stroke-width="1.56793" stroke-linecap="round" stroke-linejoin="round"/>
</svg>
