<svg width="20" height="22" viewBox="-1 0 22 22" fill="none"
  xmlns="http://www.w3.org/2000/svg">
  <path fill-rule="evenodd" clip-rule="evenodd" d="M8.41339 0.719429C8.59236 0.504732 8.81433 0.329929 9.06501 0.206295C9.31568 0.0826622 9.58949 0.0129439 9.86876 0.0016372C10.148 -0.00966951 10.4266 0.0376864 10.6864 0.140651C10.9463 0.243615 11.1817 0.399901 11.3774 0.599429L11.4854 0.719429L15.4174 5.43743H18.4024C18.6123 5.43698 18.8198 5.48087 19.0116 5.56622C19.2033 5.65158 19.3748 5.77646 19.5149 5.93271C19.655 6.08895 19.7605 6.27303 19.8245 6.47288C19.8886 6.67274 19.9096 6.88386 19.8864 7.09243L19.7944 7.85843L19.6944 8.59843L19.6124 9.15243L19.5174 9.74743L19.4094 10.3724L19.2874 11.0204L19.1514 11.6814C19.0794 12.0144 19.0024 12.3484 18.9194 12.6804C18.698 13.5585 18.4201 14.4213 18.0874 15.2634L17.8664 15.8034L17.6524 16.2914L17.4504 16.7254L17.3564 16.9194L17.1074 17.4094C16.7874 18.0194 16.1834 18.3794 15.5444 18.4314L15.3844 18.4374H4.50439C4.15477 18.4402 3.81099 18.3478 3.50979 18.1703C3.20859 17.9927 2.96131 17.7366 2.79439 17.4294L2.56239 16.9794L2.38239 16.6094C2.35034 16.5413 2.31868 16.4729 2.28739 16.4044L2.08739 15.9554C1.63084 14.8949 1.26031 13.7994 0.979394 12.6794C0.925131 12.462 0.873129 12.244 0.823394 12.0254L0.681394 11.3774L0.554394 10.7434L0.442394 10.1304L0.342394 9.54343L0.255394 8.98943L0.181394 8.47643L0.0913943 7.79343L0.0253943 7.23743C0.019629 7.18644 0.0139623 7.13544 0.00839431 7.08443C-0.0125676 6.88792 0.005825 6.6892 0.0624984 6.49988C0.119172 6.31056 0.212991 6.13442 0.338478 5.98175C0.463966 5.82908 0.618608 5.70293 0.793378 5.61068C0.968148 5.51842 1.15954 5.46191 1.35639 5.44443L1.49239 5.43743H4.48139L8.41339 0.719429ZM7.91039 10.1594C7.84275 9.92349 7.69069 9.72066 7.48317 9.58958C7.27565 9.4585 7.02717 9.40832 6.78505 9.44859C6.54293 9.48886 6.32407 9.61677 6.17016 9.80797C6.01624 9.99917 5.93803 10.2403 5.95039 10.4854L5.96339 10.6014L6.46339 13.6014L6.48839 13.7154C6.55604 13.9514 6.7081 14.1542 6.91562 14.2853C7.12314 14.4164 7.37161 14.4665 7.61374 14.4263C7.85586 14.386 8.07472 14.2581 8.22863 14.0669C8.38254 13.8757 8.46076 13.6346 8.44839 13.3894L8.43539 13.2734L7.93539 10.2734L7.91039 10.1594ZM13.1134 9.45143C12.8717 9.41111 12.6236 9.46094 12.4162 9.59146C12.2089 9.72197 12.0566 9.92408 11.9884 10.1594L11.9634 10.2734L11.4634 13.2734C11.4217 13.525 11.4776 13.7831 11.6198 13.9948C11.7621 14.2065 11.9798 14.3558 12.2285 14.4123C12.4772 14.4687 12.7381 14.428 12.9578 14.2985C13.1775 14.169 13.3394 13.9604 13.4104 13.7154L13.4354 13.6014L13.9354 10.6014C13.9788 10.3399 13.9165 10.0719 13.7624 9.8563C13.6083 9.64066 13.3748 9.49504 13.1134 9.45143ZM9.94939 1.99943L7.08439 5.43743H12.8144L9.94939 1.99943Z" fill="#FEFEFE"/>
</svg>
