<?xml version="1.0" encoding="UTF-8"?>
<!DOCTYPE svg PUBLIC "-//W3C//DTD SVG 1.1//EN" "http://www.w3.org/Graphics/SVG/1.1/DTD/svg11.dtd">
<svg xmlns="http://www.w3.org/2000/svg" version="1.1" width="256px" height="256px" style="shape-rendering:geometricPrecision; text-rendering:geometricPrecision; image-rendering:optimizeQuality; fill-rule:evenodd; clip-rule:evenodd" xmlns:xlink="http://www.w3.org/1999/xlink">
<g><path style="opacity:0.999" fill="#cd1d32" d="M 52.5,5.5 C 67.525,5.3455 79.1917,11.5122 87.5,24C 112.862,24.9211 138.195,24.5878 163.5,23C 173.305,9.09924 186.638,3.43257 203.5,6C 220.113,13.0533 226.946,25.5533 224,43.5C 222.235,48.7839 220.068,53.9506 217.5,59C 225.546,74.1487 231.379,89.982 235,106.5C 238.497,132.347 232.83,156.014 218,177.5C 208.793,189.707 197.96,200.207 185.5,209C 180.521,214.311 175.187,219.311 169.5,224C 155.62,234.208 141.453,244.042 127,253.5C 103.387,238.56 80.8875,222.06 59.5,204C 12.2678,163.473 3.93443,115.973 34.5,61.5C 33.3631,57.893 31.6965,54.5596 29.5,51.5C 29.7093,50.914 30.0426,50.414 30.5,50C 24.2447,37.9831 25.4113,26.4831 34,15.5C 39.5,10.6708 45.6667,7.33751 52.5,5.5 Z M 191.5,21.5 C 205.77,22.2846 210.937,29.618 207,43.5C 204.334,48.3186 201.5,52.9852 198.5,57.5C 202.664,66.4949 206.831,75.4949 211,84.5C 224.983,119.319 219.649,150.652 195,178.5C 174.003,198.985 151.336,217.319 127,233.5C 108.615,221.119 90.7812,207.953 73.5,194C 59.2212,181.557 47.7212,167.057 39,150.5C 36.3527,141.316 34.5194,131.982 33.5,122.5C 34.7944,107.322 38.2944,92.655 44,78.5C 47.4422,71.9494 50.6089,65.2828 53.5,58.5C 49.9226,53.0171 46.5893,47.3504 43.5,41.5C 42.1611,26.6772 48.8277,20.8439 63.5,24C 70.572,27.5635 75.2387,33.0635 77.5,40.5C 109.168,40.6666 140.835,40.5 172.5,40C 176.734,31.5985 183.067,25.4319 191.5,21.5 Z"/></g>
<g><path style="opacity:0.016" fill="#c20909" d="M 26.5,51.5 C 28.0847,52.0024 28.5847,53.0024 28,54.5C 25.5359,55.6508 23.0359,56.6508 20.5,57.5C 20.281,56.325 20.6143,55.325 21.5,54.5C 23.3964,53.7255 25.063,52.7255 26.5,51.5 Z"/></g>
<g><path style="opacity:0.004" fill="#e90000" d="M 31.5,63.5 C 31.3505,62.448 31.5172,61.448 32,60.5C 32.7401,61.7494 32.5735,62.7494 31.5,63.5 Z"/></g>
<g><path style="opacity:0.004" fill="#fe0000" d="M 31.5,63.5 C 31.631,64.2389 31.4643,64.9056 31,65.5C 30.3083,64.5632 30.475,63.8966 31.5,63.5 Z"/></g>
<g><path style="opacity:0.999" fill="#cc1d32" d="M 138.5,103.5 C 150.218,103.188 161.884,103.521 173.5,104.5C 174.614,105.723 174.781,107.056 174,108.5C 169.344,116.219 162.511,119.886 153.5,119.5C 153.885,126.706 155.051,133.706 157,140.5C 158.634,155.151 157.3,169.484 153,183.5C 151.776,186.796 149.942,189.629 147.5,192C 133.5,192.667 119.5,192.667 105.5,192C 101.77,186.263 98.9372,180.096 97,173.5C 94.3573,155.785 95.1907,138.285 99.5,121C 91.6344,120.708 85.1344,117.541 80,111.5C 78.7978,109.323 78.2978,106.989 78.5,104.5C 91.08,104.178 103.58,104.511 116,105.5C 115.088,117.22 113.421,128.886 111,140.5C 110.333,149.5 110.333,158.5 111,167.5C 111.789,170.834 112.956,174.001 114.5,177C 122.881,177.787 131.214,177.454 139.5,176C 142.063,169.462 143.397,162.629 143.5,155.5C 141.812,139.412 139.479,123.412 136.5,107.5C 136.803,105.886 137.47,104.552 138.5,103.5 Z"/></g>
<g><path style="opacity:0.829" fill="#cb1a2f" d="M 118.5,156.5 C 123.844,156.334 129.177,156.501 134.5,157C 136,158.833 137.5,160.667 139,162.5C 139.798,164.259 139.631,165.926 138.5,167.5C 135.025,169.808 131.692,172.308 128.5,175C 127.167,175.667 125.833,175.667 124.5,175C 120.379,172.286 116.713,169.119 113.5,165.5C 114.909,162.349 116.575,159.349 118.5,156.5 Z"/></g>
<g><path style="opacity:0.024" fill="#d9041a" d="M 106.5,251.5 C 107.946,250.387 109.613,250.22 111.5,251C 109.866,251.494 108.199,251.66 106.5,251.5 Z"/></g>
</svg>
