<svg width="40" height="40" viewBox="0 0 40 40" fill="none" xmlns="http://www.w3.org/2000/svg">
<path d="M26.6665 20C26.6665 19.116 27.0177 18.2681 27.6428 17.643C28.2679 17.0179 29.1158 16.6667 29.9998 16.6667C30.8839 16.6667 31.7317 17.0179 32.3569 17.643C32.982 18.2681 33.3332 19.116 33.3332 20C33.3332 20.8841 32.982 21.7319 32.3569 22.3571C31.7317 22.9822 30.8839 23.3334 29.9998 23.3334C29.1158 23.3334 28.2679 22.9822 27.6428 22.3571C27.0177 21.7319 26.6665 20.8841 26.6665 20ZM16.6665 20C16.6665 19.116 17.0177 18.2681 17.6428 17.643C18.2679 17.0179 19.1158 16.6667 19.9998 16.6667C20.8839 16.6667 21.7317 17.0179 22.3569 17.643C22.982 18.2681 23.3332 19.116 23.3332 20C23.3332 20.8841 22.982 21.7319 22.3569 22.3571C21.7317 22.9822 20.8839 23.3334 19.9998 23.3334C19.1158 23.3334 18.2679 22.9822 17.6428 22.3571C17.0177 21.7319 16.6665 20.8841 16.6665 20ZM6.6665 20C6.6665 19.116 7.01769 18.2681 7.64281 17.643C8.26794 17.0179 9.11578 16.6667 9.99984 16.6667C10.8839 16.6667 11.7317 17.0179 12.3569 17.643C12.982 18.2681 13.3332 19.116 13.3332 20C13.3332 20.8841 12.982 21.7319 12.3569 22.3571C11.7317 22.9822 10.8839 23.3334 9.99984 23.3334C9.11578 23.3334 8.26794 22.9822 7.64281 22.3571C7.01769 21.7319 6.6665 20.8841 6.6665 20Z" fill="#7D7D7D"/>
</svg>
