<svg
      viewBox="0 0 512 512"
      xmlns="http://www.w3.org/2000/svg"
      width="20"
      height="20"
    >
      <g>
        <path d="m296 436c11.046 0 20-8.954 20-20v-20h40v20c0 11.046 8.954 20 20 20h40c11.046 0 20-8.954 20-20s-8.954-20-20-20h-20v-20c0-11.046-8.954-20-20-20h-60v-60c0-11.046-8.954-20-20-20s-20 8.954-20 20v120c0 11.046 8.954 20 20 20z" />
        <path d="m376 316h20v20c0 11.046 8.954 20 20 20s20-8.954 20-20v-40c0-11.046-8.954-20-20-20h-40c-11.046 0-20 8.954-20 20s8.954 20 20 20z" />
        <path d="m20 160c11.046 0 20-8.954 20-20v-40c0-33.084 26.916-60 60-60h40c11.046 0 20-8.954 20-20s-8.954-20-20-20h-40c-55.14 0-100 44.86-100 100v40c0 11.046 8.954 20 20 20z" />
        <path d="m412 0h-40c-11.046 0-20 8.954-20 20s8.954 20 20 20h40c33.084 0 60 26.916 60 60v40c0 11.046 8.954 20 20 20s20-8.954 20-20v-40c0-55.14-44.859-100-100-100z" />
        <path d="m100 512h40c11.046 0 20-8.954 20-20s-8.954-20-20-20h-40c-33.084 0-60-26.916-60-60v-40c0-11.046-8.954-20-20-20s-20 8.954-20 20v40c0 55.14 44.86 100 100 100z" />
        <path d="m492 352c-11.046 0-20 8.954-20 20v40c0 33.084-26.916 60-60 60h-40c-11.046 0-20 8.954-20 20s8.954 20 20 20h40c55.141 0 100-44.86 100-100v-40c0-11.046-8.954-20-20-20z" />
        <path d="m76 136v40c0 33.084 26.916 60 60 60h40c33.084 0 60-26.916 60-60v-40c0-33.084-26.916-60-60-60h-40c-33.084 0-60 26.916-60 60zm120 0v40c0 11.028-8.972 20-20 20h-40c-11.028 0-20-8.972-20-20v-40c0-11.028 8.972-20 20-20h40c11.028 0 20 8.972 20 20z" />
        <path d="m336 236h40c33.084 0 60-26.916 60-60v-40c0-33.084-26.916-60-60-60h-40c-33.084 0-60 26.916-60 60v40c0 33.084 26.916 60 60 60zm-20-100c0-11.028 8.972-20 20-20h40c11.028 0 20 8.972 20 20v40c0 11.028-8.972 20-20 20h-40c-11.028 0-20-8.972-20-20z" />
        <path d="m236 336c0-33.084-26.916-60-60-60h-40c-33.084 0-60 26.916-60 60v40c0 33.084 26.916 60 60 60h40c33.084 0 60-26.916 60-60zm-40 40c0 11.028-8.972 20-20 20h-40c-11.028 0-20-8.972-20-20v-40c0-11.028 8.972-20 20-20h40c11.028 0 20 8.972 20 20z" />
      </g>
    </svg>