<svg width="30" height="31" viewBox="0 0 25 26" xmlns="http://www.w3.org/2000/svg">
    <path d="M12.3631 8.27955C11.4897 8.27955 10.636 8.53853 9.9098 9.02374C9.18363 9.50895 8.61765 10.1986 8.28343 11.0055C7.94921 11.8123 7.86176 12.7002 8.03215 13.5568C8.20253 14.4134 8.62309 15.2002 9.24065 15.8177C9.8582 16.4353 10.645 16.8558 11.5016 17.0262C12.3582 17.1966 13.246 17.1092 14.0529 16.7749C14.8598 16.4407 15.5494 15.8747 16.0346 15.1486C16.5198 14.4224 16.7788 13.5687 16.7788 12.6953C16.7753 11.5253 16.309 10.4041 15.4816 9.57676C14.6543 8.7494 13.5331 8.28305 12.3631 8.27955ZM21.8967 12.6953C21.8944 13.1079 21.8641 13.5199 21.8062 13.9284L24.4937 16.0325C24.6108 16.1292 24.6896 16.2643 24.7162 16.4137C24.7428 16.5632 24.7154 16.7172 24.6389 16.8483L22.0965 21.2376C22.0192 21.3675 21.8986 21.4661 21.7558 21.5158C21.6131 21.5656 21.4573 21.5634 21.316 21.5097L18.156 20.2402C17.498 20.7469 16.7779 21.1674 16.0132 21.4915L15.5408 24.8464C15.5143 24.9967 15.4365 25.1331 15.3206 25.2323C15.2047 25.3316 15.058 25.3876 14.9054 25.3906H9.82069C9.67091 25.3877 9.52654 25.3341 9.41116 25.2386C9.29577 25.143 9.21618 25.0112 9.18537 24.8646L8.71288 21.5097C7.94612 21.1894 7.22552 20.7682 6.57013 20.2573L3.4101 21.5268C3.26885 21.5806 3.11316 21.5828 2.97041 21.5332C2.82766 21.4835 2.70699 21.3851 2.62962 21.2553L0.0872437 16.8666C0.0107174 16.7355 -0.0166985 16.5814 0.00989519 16.432C0.0364889 16.2825 0.115359 16.1474 0.232412 16.0507L2.91995 13.9466C2.86263 13.5319 2.83239 13.1139 2.82943 12.6953C2.83173 12.2827 2.86197 11.8707 2.91995 11.4622L0.232412 9.3581C0.115359 9.26145 0.0364889 9.12632 0.00989519 8.97687C-0.0166985 8.82742 0.0107174 8.67339 0.0872437 8.54229L2.62962 4.15302C2.70691 4.02309 2.82754 3.92457 2.97029 3.87479C3.11305 3.82502 3.26879 3.82718 3.4101 3.8809L6.57013 5.15043C7.22815 4.64373 7.94823 4.22322 8.71288 3.89912L9.18537 0.544243C9.21181 0.393968 9.28962 0.257541 9.4055 0.158274C9.52138 0.0590076 9.66813 0.00306274 9.82069 0H14.9054C15.0552 0.00291525 15.1996 0.0565169 15.315 0.152055C15.4304 0.247593 15.5099 0.379424 15.5408 0.526027L16.0132 3.8809C16.781 4.20103 17.5025 4.62222 18.1587 5.13332L21.316 3.86379C21.4573 3.81002 21.613 3.80778 21.7557 3.85745C21.8985 3.90712 22.0191 4.00552 22.0965 4.13536L24.6389 8.52463C24.7154 8.65572 24.7428 8.80976 24.7162 8.95921C24.6896 9.10866 24.6108 9.24379 24.4937 9.34044L21.8062 11.4445C21.8635 11.8591 21.8937 12.2769 21.8967 12.6953Z"/>
</svg>
