<svg width="32" height="32" viewBox="0 0 32 32" xmlns="http://www.w3.org/2000/svg">
<path d="M16.0949 0.544434C7.62575 0.544434 0.735352 7.43483 0.735352 15.904C0.735352 24.3732 7.62575 31.2636 16.0949 31.2636C24.5641 31.2636 31.4545 24.3732 31.4545 15.904C31.4545 7.43483 24.5641 0.544434 16.0949 0.544434ZM12.3865 9.17091C13.3221 8.17918 14.6387 7.63347 16.0949 7.63347C17.5511 7.63347 18.856 8.18288 19.7953 9.17977C20.7471 10.19 21.2101 11.5472 21.1008 13.0064C20.8823 15.904 18.6374 18.267 16.0949 18.267C13.5525 18.267 11.3032 15.904 11.089 13.0056C10.9805 11.5347 11.4428 10.173 12.3865 9.17091ZM16.0949 28.9006C14.3599 28.9017 12.6424 28.5545 11.0441 27.8794C9.44584 27.2043 7.9994 26.2152 6.79057 24.9706C7.48291 23.9833 8.36505 23.1438 9.38546 22.5013C11.2677 21.2946 13.65 20.6301 16.0949 20.6301C18.5399 20.6301 20.9221 21.2946 22.8022 22.5013C23.8235 23.1435 24.7064 23.983 25.3993 24.9706C24.1906 26.2153 22.7442 27.2045 21.1459 27.8796C19.5476 28.5547 17.83 28.9019 16.0949 28.9006Z" />
</svg>
