<svg width="100" height="100" viewBox="12 12 105 105"
  xmlns="http://www.w3.org/2000/svg">
  <path d="M64 12C35.3275 12 12 35.3275 12 64C12 92.6725 35.3275 116 64 116C92.6725 116 116 92.6725 116 64C116 35.3275 92.6725 12 64 12ZM51.445 41.205C54.6125 37.8475 59.07 36 64 36C68.93 36 73.3475 37.86 76.5275 41.235C79.75 44.655 81.3175 49.25 80.9475 54.19C80.2075 64 72.6075 72 64 72C55.3925 72 47.7775 64 47.0525 54.1875C46.685 49.2075 48.25 44.5975 51.445 41.205ZM64 108C58.1262 108.004 52.3114 106.828 46.9004 104.543C41.4894 102.257 36.5925 98.9085 32.5 94.695C34.8439 91.3524 37.8304 88.5104 41.285 86.335C47.6575 82.25 55.7225 80 64 80C72.2775 80 80.3425 82.25 86.7075 86.335C90.165 88.5094 93.1541 91.3515 95.5 94.695C91.4078 98.9089 86.511 102.258 81.0999 104.544C75.6889 106.829 69.8739 108.004 64 108Z"/>
</svg>
