<svg 
      id="Layer_1" 
      width="13"
      height="13" 
      viewBox="0 0 32 32" 
      xmlns="http://www.w3.org/2000/svg"
    >
      <path d="m26.748 25.327-9.333-9.327 9.327-9.333c.391-.391.391-1.024 0-1.415-.391-.39-1.023-.39-1.414 0l-9.328 9.334-9.334-9.329c-.391-.39-1.023-.39-1.414 0s-.391 1.024 0 1.415l9.334 9.328-9.327 9.333c-.391.391-.391 1.024 0 1.414.195.195.451.293.707.293s.512-.098.707-.293l9.328-9.334 9.333 9.327c.195.195.451.293.707.293s.512-.098.707-.293c.391-.389.391-1.023 0-1.413z">
      </path>
</svg>