<svg width="16" height="16" viewBox="0 0 16 16" fill="none" xmlns="http://www.w3.org/2000/svg">
    <path d="M14.9998 7.20019C15.2447 7.20021 15.4812 7.27215 15.6643 7.40235C15.8474 7.53256 15.9643 7.71197 15.993 7.90657L16 8.00017V12.8001C16 13.621 15.6055 14.4106 14.898 15.0055C14.1905 15.6003 13.2243 15.955 12.199 15.996L11.999 16H4.001C2.9745 16 1.98727 15.6845 1.2435 15.1186C0.49973 14.5528 0.0563263 13.78 0.00500137 12.9601L0 12.8001V8.00017C0.000282778 7.79627 0.0979034 7.60015 0.272916 7.45189C0.447929 7.30362 0.687125 7.2144 0.94163 7.20245C1.19614 7.1905 1.44674 7.25672 1.64224 7.38759C1.83774 7.51846 1.96339 7.7041 1.9935 7.90657L2.0005 8.00017V12.8001C2.00059 13.2036 2.19132 13.5922 2.53447 13.888C2.87762 14.1838 3.34785 14.365 3.85096 14.3952L4.001 14.4H11.999C12.5035 14.4 12.9894 14.2474 13.3593 13.973C13.7291 13.6985 13.9557 13.3224 13.9935 12.9201L13.9995 12.8001V8.00017C13.9995 7.788 14.1049 7.58452 14.2925 7.4345C14.48 7.28447 14.7345 7.20019 14.9998 7.20019ZM2.28957 4.23225L7.28782 0.234735C7.45993 0.0968783 7.68902 0.013988 7.93211 0.00161586C8.1752 -0.0107563 8.41558 0.0482403 8.60815 0.167536L8.70218 0.233935L13.7064 4.23145C13.8862 4.37528 13.9907 4.56845 13.9987 4.7717C14.0067 4.97494 13.9177 5.173 13.7496 5.32562C13.5816 5.47824 13.3472 5.57395 13.0941 5.59331C12.8411 5.61266 12.5882 5.55421 12.3871 5.42982L12.2931 5.36343L8.99825 2.73228V10.6041C8.99822 10.8001 8.90827 10.9892 8.74547 11.1356C8.58267 11.282 8.35834 11.3756 8.11503 11.3985L7.998 11.4041C7.75301 11.4041 7.51654 11.3321 7.33346 11.2019C7.15038 11.0717 7.03342 10.8923 7.00475 10.6977L6.99775 10.6041V2.72828L3.70393 5.36343C3.53169 5.50116 3.30253 5.58391 3.05945 5.59613C2.81636 5.60836 2.57605 5.54922 2.3836 5.42982L2.28957 5.36343C2.11735 5.22567 2.0139 5.0424 1.99861 4.84798C1.98333 4.65356 2.05726 4.46137 2.20655 4.30745L2.28957 4.23225L7.28782 0.234735L2.29057 4.23145L2.28957 4.23225Z"/>
</svg>

