<svg width="36" height="36" viewBox="0 0 36 36" fill="none"
  xmlns="http://www.w3.org/2000/svg">
  <path d="M27.5456 23.4536L17.9997 32.9995L8.45382 23.4536C6.56586 21.5657 5.28014 19.1602 4.75926 16.5415C4.23838 13.9228 4.50573 11.2085 5.5275 8.7417C6.54928 6.27494 8.27958 4.16657 10.4996 2.68319C12.7196 1.19982 15.3297 0.408075 17.9997 0.408075C20.6697 0.408074 23.2797 1.19982 25.4998 2.68319C27.7198 4.16656 29.4501 6.27494 30.4719 8.7417C31.4936 11.2085 31.761 13.9228 31.2401 16.5415C30.7192 19.1602 29.4335 21.5657 27.5456 23.4536Z" fill="#D01F36"/>
  <ellipse cx="17.9997" cy="13.4998" rx="4.49994" ry="4.49994" fill="#EBEBEB"/>
</svg>
