<svg width="30" height="33" viewBox="0 0 30 33" fill="none" xmlns="http://www.w3.org/2000/svg">
<path d="M29.2721 22.506C27.9901 20.301 27.3093 17.1361 27.3093 13.3597C27.3093 10.0695 26.0022 6.91398 23.6757 4.58744C21.3492 2.2609 18.1937 0.953857 14.9035 0.953857C11.6132 0.953857 8.45777 2.2609 6.13122 4.58744C3.80468 6.91398 2.49764 10.0695 2.49764 13.3597C2.49764 17.1375 1.81975 20.301 0.537819 22.506C0.276235 22.9558 0.137575 23.4664 0.13576 23.9867C0.133946 24.507 0.26904 25.0186 0.527481 25.4701C0.784286 25.9219 1.15702 26.297 1.60721 26.5566C2.0574 26.8163 2.56873 26.951 3.0884 26.947H26.7185C27.2375 26.9502 27.7479 26.8151 28.1972 26.5555C28.6465 26.2959 29.0186 25.9213 29.275 25.4701C29.5346 25.0192 29.6709 24.508 29.6704 23.9877C29.6699 23.4674 29.5325 22.9564 29.2721 22.506ZM4.072 23.4025C5.37904 20.7441 6.04216 17.3679 6.04216 13.3597C6.04216 11.0095 6.97576 8.75561 8.63758 7.09379C10.2994 5.43198 12.5533 4.49838 14.9035 4.49838C17.2536 4.49838 19.5075 5.43198 21.1694 7.09379C22.8312 8.75561 23.7648 11.0095 23.7648 13.3597C23.7648 17.3665 24.4264 20.7441 25.7335 23.4025H4.072ZM21.4018 31.0823C21.4018 31.5523 21.215 32.0031 20.8827 32.3355C20.5503 32.6678 20.0995 32.8545 19.6295 32.8545H10.1774C9.70741 32.8545 9.25662 32.6678 8.92426 32.3355C8.5919 32.0031 8.40518 31.5523 8.40518 31.0823C8.40518 30.6122 8.5919 30.1615 8.92426 29.8291C9.25662 29.4967 9.70741 29.31 10.1774 29.31H19.6295C20.0995 29.31 20.5503 29.4967 20.8827 29.8291C21.215 30.1615 21.4018 30.6122 21.4018 31.0823Z" fill="#FEFEFE"/>
</svg>
