<svg viewBox="-1 -1 16 21"
    xmlns="http://www.w3.org/2000/svg">
    <path d="M7.24129 0.241118C7.39573 0.0867302 7.60516 0 7.82353 0C8.0419 0 8.25133 0.0867302 8.40576 0.241118L10.8764 2.71171C11.0307 2.86614 11.1175 3.07557 11.1175 3.29394C11.1175 3.51231 11.0307 3.72174 10.8764 3.87618L8.40576 6.34677C8.25045 6.49678 8.04242 6.57979 7.82649 6.57791C7.61057 6.57603 7.40402 6.48942 7.25133 6.33673C7.09864 6.18404 7.01203 5.97749 7.01015 5.76157C7.00827 5.54564 7.09128 5.33761 7.24129 5.1823L8.30612 4.11747H7C4.07812 4.11747 1.64706 6.54853 1.64706 9.47041C1.64706 12.3923 4.07812 14.8234 7 14.8234C9.92188 14.8234 12.3529 12.3923 12.3529 9.47041C12.3529 9.252 12.4397 9.04253 12.5941 8.88809C12.7486 8.73365 12.9581 8.64688 13.1765 8.64688C13.3949 8.64688 13.6044 8.73365 13.7588 8.88809C13.9132 9.04253 14 9.252 14 9.47041C14 13.3015 10.8311 16.4704 7 16.4704C3.16894 16.4704 0 13.3015 0 9.47041C0 5.63935 3.16894 2.47041 7 2.47041H8.30612L7.24129 1.40559C7.08691 1.25115 7.00018 1.04172 7.00018 0.823354C7.00018 0.604983 7.08691 0.395553 7.24129 0.241118Z" />
</svg>