<svg width="10" height="18" viewBox="0 0 10 18"
     xmlns="http://www.w3.org/2000/svg">
    <path d="M0.28958 1.51763C0.211779 1.43176 0.150957 1.33074 0.110585 1.22035C0.0702126 1.10996 0.0510815 0.992358 0.0542846 0.874255C0.0574877 0.756153 0.0829621 0.639865 0.129253 0.532031C0.175544 0.424197 0.241744 0.326929 0.324075 0.24578C0.406406 0.164631 0.503256 0.101191 0.609093 0.059082C0.71493 0.0169728 0.827682 -0.00298112 0.940912 0.00035984C1.05414 0.0037008 1.16563 0.0302711 1.26902 0.0785536C1.37241 0.126836 1.46566 0.195885 1.54346 0.281759L8.87357 8.37701C9.02495 8.54401 9.1093 8.76512 9.1093 8.99495C9.1093 9.22477 9.02495 9.44588 8.87357 9.61288L1.54346 17.709C1.46617 17.7968 1.37294 17.8676 1.26917 17.9175C1.16541 17.9674 1.05318 17.9952 0.939006 17.9994C0.824833 18.0037 0.710992 17.9842 0.604096 17.9421C0.4972 17.9001 0.399379 17.8363 0.316315 17.7545C0.233252 17.6727 0.166601 17.5745 0.120235 17.4656C0.0738687 17.3567 0.0487115 17.2392 0.046224 17.1201C0.0437365 17.001 0.0639683 16.8825 0.105745 16.7716C0.147521 16.6607 0.21001 16.5596 0.28958 16.4741L7.06088 8.99495L0.28958 1.51763Z"/>
</svg>

