<svg width="25" height="25" viewBox="0 0 25 25" fill="none" xmlns="http://www.w3.org/2000/svg">
    <path d="M12.5 0C10.0277 0 7.61099 0.733112 5.55538 2.10663C3.49976 3.48015 1.89761 5.43238 0.951511 7.71646C0.00541607 10.0005 -0.242126 12.5139 0.24019 14.9386C0.722505 17.3634 1.91301 19.5907 3.66117 21.3388C5.40933 23.087 7.63661 24.2775 10.0614 24.7598C12.4861 25.2421 14.9995 24.9946 17.2835 24.0485C19.5676 23.1024 21.5199 21.5002 22.8934 19.4446C24.2669 17.389 25 14.9723 25 12.5C24.9963 9.18592 23.6782 6.00863 21.3348 3.66522C18.9914 1.32182 15.8141 0.00367618 12.5 0ZM12.5 22.2222C10.5771 22.2222 8.69744 21.652 7.09863 20.5837C5.49982 19.5154 4.25369 17.997 3.51784 16.2205C2.78199 14.444 2.58946 12.4892 2.96459 10.6033C3.33973 8.71736 4.26568 6.98503 5.62535 5.62535C6.98503 4.26567 8.71737 3.33972 10.6033 2.96459C12.4892 2.58945 14.444 2.78199 16.2205 3.51784C17.997 4.25369 19.5154 5.49981 20.5837 7.09862C21.652 8.69743 22.2222 10.5771 22.2222 12.5C22.2195 15.0776 21.1943 17.5489 19.3716 19.3716C17.5489 21.1943 15.0776 22.2195 12.5 22.2222ZM20.3704 12.5C20.3704 12.8684 20.224 13.2216 19.9636 13.4821C19.7031 13.7426 19.3498 13.8889 18.9815 13.8889H12.5C12.1316 13.8889 11.7784 13.7426 11.5179 13.4821C11.2574 13.2216 11.1111 12.8684 11.1111 12.5V6.01852C11.1111 5.65016 11.2574 5.29689 11.5179 5.03642C11.7784 4.77596 12.1316 4.62963 12.5 4.62963C12.8684 4.62963 13.2216 4.77596 13.4821 5.03642C13.7426 5.29689 13.8889 5.65016 13.8889 6.01852V11.1111H18.9815C19.3498 11.1111 19.7031 11.2574 19.9636 11.5179C20.224 11.7784 20.3704 12.1316 20.3704 12.5Z" fill="#333333"/>
</svg>


