<svg width="3008" height="1911" viewBox="0 0 3008 1911" fill="none" xmlns="http://www.w3.org/2000/svg">
<path d="M704.425 1608.3H592V1453.39H631.836V1575.11H681.187V1453.39H721.023V1575.11H739.834V1641.5H704.425V1608.3ZM756.9 1453.39H848.079V1486.58H796.736V1511.59H838.563V1543.68H796.736V1575.11H850.293V1608.3H756.9V1453.39ZM965.29 1544.12H910.848V1608.3H871.013V1453.39H910.848V1510.93H965.29V1453.39H1005.13V1608.3H965.29V1544.12ZM1057.43 1486.58H1024.01V1453.39H1130.68V1486.58H1097.26V1608.3H1057.43V1486.58ZM1199.61 1453.39C1208.91 1453.39 1217.24 1454.49 1224.62 1456.71C1231.99 1458.77 1238.27 1461.94 1243.43 1466.22C1248.59 1470.35 1252.57 1475.59 1255.38 1481.94C1258.18 1488.28 1259.59 1495.72 1259.59 1504.29C1259.59 1521.25 1254.12 1534.39 1243.21 1543.68C1232.29 1552.82 1217.02 1557.4 1197.4 1557.4H1189.43V1608.3H1149.6V1453.39H1199.61ZM1195.85 1524.21C1204.41 1524.21 1210.38 1522.44 1213.78 1518.9C1217.32 1515.2 1219.09 1510.63 1219.09 1505.17C1219.09 1502.66 1218.71 1500.31 1217.98 1498.09C1217.24 1495.88 1215.99 1493.95 1214.22 1492.34C1212.45 1490.57 1210.02 1489.16 1206.92 1488.13C1203.82 1487.09 1199.9 1486.58 1195.19 1486.58H1189.43V1524.21H1195.85ZM1348.7 1453.39H1384.11L1420.62 1543.9L1455.15 1453.39H1490.56L1511.8 1608.3H1473.52L1461.79 1523.54L1428.37 1608.3H1411.55L1377.03 1523.54L1366.18 1608.3H1329.44L1348.7 1453.39ZM1606.52 1576.66C1612.58 1576.66 1618.19 1575.69 1623.34 1573.78C1628.65 1571.85 1633.23 1568.98 1637.06 1565.15C1640.9 1561.17 1643.86 1556.3 1645.92 1550.54C1648.13 1544.79 1649.24 1538.15 1649.24 1530.63C1649.24 1523.24 1648.13 1516.68 1645.92 1510.93C1643.86 1505.17 1640.9 1500.37 1637.06 1496.54C1633.38 1492.56 1628.88 1489.53 1623.56 1487.47C1618.41 1485.4 1612.72 1484.37 1606.52 1484.37C1600.33 1484.37 1594.57 1485.4 1589.26 1487.47C1584.1 1489.38 1579.6 1492.34 1575.76 1496.32C1572.08 1500.15 1569.12 1504.95 1566.91 1510.71C1564.85 1516.46 1563.81 1523.1 1563.81 1530.63C1563.81 1537.99 1564.85 1544.57 1566.91 1550.32C1568.98 1555.92 1571.85 1560.72 1575.54 1564.71C1579.38 1568.54 1583.88 1571.49 1589.04 1573.56C1594.35 1575.62 1600.18 1576.66 1606.52 1576.66ZM1606.52 1609.85C1593.69 1609.85 1582.11 1608.01 1571.78 1604.32C1561.45 1600.48 1552.68 1595.09 1545.44 1588.17C1538.22 1581.23 1532.61 1572.9 1528.62 1563.16C1524.79 1553.42 1522.87 1542.58 1522.87 1530.63C1522.87 1519.4 1524.79 1509 1528.62 1499.42C1532.46 1489.68 1537.99 1481.27 1545.22 1474.19C1552.46 1466.95 1561.23 1461.36 1571.56 1457.37C1581.89 1453.23 1593.54 1451.18 1606.52 1451.18C1618.92 1451.18 1630.2 1453.09 1640.38 1456.93C1650.72 1460.61 1659.57 1466 1666.94 1473.08C1674.32 1480.01 1680 1488.36 1683.98 1498.09C1688.12 1507.83 1690.18 1518.67 1690.18 1530.63C1690.18 1541.83 1688.19 1552.31 1684.2 1562.05C1680.37 1571.63 1674.76 1579.98 1667.38 1587.06C1660.16 1594.14 1651.38 1599.74 1641.05 1603.88C1630.87 1607.86 1619.36 1609.85 1606.52 1609.85ZM1705.17 1610.07C1702.37 1610.07 1699.57 1609.85 1696.76 1609.41L1696.54 1574.44C1697.28 1574.59 1698.17 1574.67 1699.2 1574.67C1703.78 1574.67 1707.46 1572.82 1710.26 1569.13C1713.22 1565.29 1715.43 1559.76 1716.9 1552.53C1718.53 1545.15 1719.56 1536.22 1720 1525.76C1720.6 1515.28 1720.88 1503.25 1720.88 1489.68V1453.39H1829.1V1608.3H1789.27V1486.58H1758.06V1511.15C1758.06 1543.6 1753.79 1568.25 1745.23 1585.07C1736.82 1601.73 1723.47 1610.07 1705.17 1610.07ZM1933.74 1576.66C1939.78 1576.66 1945.39 1575.69 1950.56 1573.78C1955.87 1571.85 1960.44 1568.98 1964.28 1565.15C1968.11 1561.17 1971.06 1556.3 1973.13 1550.54C1975.34 1544.79 1976.45 1538.15 1976.45 1530.63C1976.45 1523.24 1975.34 1516.68 1973.13 1510.93C1971.06 1505.17 1968.11 1500.37 1964.28 1496.54C1960.58 1492.56 1956.09 1489.53 1950.78 1487.47C1945.61 1485.4 1939.94 1484.37 1933.74 1484.37C1927.54 1484.37 1921.79 1485.4 1916.48 1487.47C1911.31 1489.38 1906.81 1492.34 1902.98 1496.32C1899.28 1500.15 1896.34 1504.95 1894.12 1510.71C1892.06 1516.46 1891.03 1523.1 1891.03 1530.63C1891.03 1537.99 1892.06 1544.57 1894.12 1550.32C1896.18 1555.92 1899.06 1560.72 1902.76 1564.71C1906.58 1568.54 1911.09 1571.49 1916.26 1573.56C1921.57 1575.62 1927.39 1576.66 1933.74 1576.66ZM1933.74 1609.85C1920.9 1609.85 1909.32 1608.01 1898.99 1604.32C1888.66 1600.48 1879.88 1595.09 1872.66 1588.17C1865.42 1581.23 1859.82 1572.9 1855.84 1563.16C1852 1553.42 1850.08 1542.58 1850.08 1530.63C1850.08 1519.4 1852 1509 1855.84 1499.42C1859.67 1489.68 1865.2 1481.27 1872.44 1474.19C1879.66 1466.95 1888.44 1461.36 1898.77 1457.37C1909.1 1453.23 1920.75 1451.18 1933.74 1451.18C1946.13 1451.18 1957.42 1453.09 1967.6 1456.93C1977.92 1460.61 1986.78 1466 1994.16 1473.08C2001.53 1480.01 2007.21 1488.36 2011.2 1498.09C2015.32 1507.83 2017.39 1518.67 2017.39 1530.63C2017.39 1541.83 2015.4 1552.31 2011.42 1562.05C2007.58 1571.63 2001.97 1579.98 1994.6 1587.06C1987.36 1594.14 1978.59 1599.74 1968.26 1603.88C1958.08 1607.86 1946.57 1609.85 1933.74 1609.85ZM2022.84 1575.11H2038.11C2042.53 1563.3 2045.93 1549.72 2048.29 1534.39C2050.8 1518.9 2052.05 1500.81 2052.05 1480.17V1453.39H2158.94V1575.11H2177.75V1641.5H2142.34V1608.3H2058.25V1641.5H2022.84V1575.11ZM2090.12 1486.58C2089.83 1505.32 2088.64 1521.92 2086.57 1536.38C2084.66 1550.69 2081.56 1563.6 2077.28 1575.11H2119.11V1486.58H2090.12ZM2194.76 1453.39H2285.94V1486.58H2234.6V1511.59H2276.42V1543.68H2234.6V1575.11H2288.15V1608.3H2194.76V1453.39ZM2217.11 1444.76C2211.8 1444.76 2207.44 1443.35 2204.06 1440.55C2200.66 1437.6 2198.97 1433.84 2198.97 1429.27C2198.97 1424.84 2200.66 1421.14 2204.06 1418.2C2207.6 1415.25 2211.95 1413.77 2217.11 1413.77C2222.42 1413.77 2226.7 1415.25 2229.95 1418.2C2233.34 1421 2235.04 1424.68 2235.04 1429.27C2235.04 1433.84 2233.34 1437.6 2229.95 1440.55C2226.7 1443.35 2222.42 1444.76 2217.11 1444.76ZM2263.59 1444.76C2258.28 1444.76 2253.92 1443.35 2250.53 1440.55C2247.13 1437.6 2245.44 1433.84 2245.44 1429.27C2245.44 1424.84 2247.13 1421.14 2250.53 1418.2C2254.07 1415.25 2258.42 1413.77 2263.59 1413.77C2268.9 1413.77 2273.17 1415.25 2276.42 1418.2C2279.81 1421 2281.51 1424.68 2281.51 1429.27C2281.51 1433.84 2279.81 1437.6 2276.42 1440.55C2273.17 1443.35 2268.9 1444.76 2263.59 1444.76ZM2433.69 1539.26H2423.28V1608.3H2383.45V1539.26H2372.6L2339.63 1608.3H2294.7V1606.09L2336.53 1521.99L2308.87 1455.6V1453.39H2349.37L2372.16 1510.93H2383.45V1453.39H2423.28V1510.93H2434.35L2457.37 1453.39H2497.42V1455.6L2469.54 1521.77L2512.25 1606.09V1608.3H2469.32L2433.69 1539.26ZM2621.21 1544.12H2566.77V1608.3H2526.93V1453.39H2566.77V1510.93H2621.21V1453.39H2661.05V1608.3H2621.21V1544.12ZM2765.8 1576.66C2771.86 1576.66 2777.46 1575.69 2782.62 1573.78C2787.93 1571.85 2792.5 1568.98 2796.34 1565.15C2800.18 1561.17 2803.13 1556.3 2805.2 1550.54C2807.41 1544.79 2808.52 1538.15 2808.52 1530.63C2808.52 1523.24 2807.41 1516.68 2805.2 1510.93C2803.13 1505.17 2800.18 1500.37 2796.34 1496.54C2792.66 1492.56 2788.16 1489.53 2782.84 1487.47C2777.68 1485.4 2772 1484.37 2765.8 1484.37C2759.61 1484.37 2753.85 1485.4 2748.54 1487.47C2743.37 1489.38 2738.88 1492.34 2735.04 1496.32C2731.36 1500.15 2728.4 1504.95 2726.19 1510.71C2724.12 1516.46 2723.09 1523.1 2723.09 1530.63C2723.09 1537.99 2724.12 1544.57 2726.19 1550.32C2728.26 1555.92 2731.14 1560.72 2734.82 1564.71C2738.66 1568.54 2743.15 1571.49 2748.32 1573.56C2753.63 1575.62 2759.46 1576.66 2765.8 1576.66ZM2765.8 1609.85C2752.97 1609.85 2741.38 1608.01 2731.06 1604.32C2720.73 1600.48 2711.95 1595.09 2704.72 1588.17C2697.5 1581.23 2691.89 1572.9 2687.9 1563.16C2684.06 1553.42 2682.15 1542.58 2682.15 1530.63C2682.15 1519.4 2684.06 1509 2687.9 1499.42C2691.74 1489.68 2697.28 1481.27 2704.5 1474.19C2711.73 1466.95 2720.51 1461.36 2730.84 1457.37C2741.16 1453.23 2752.82 1451.18 2765.8 1451.18C2778.2 1451.18 2789.48 1453.09 2799.66 1456.93C2809.99 1460.61 2818.84 1466 2826.22 1473.08C2833.6 1480.01 2839.28 1488.36 2843.26 1498.09C2847.39 1507.83 2849.46 1518.67 2849.46 1530.63C2849.46 1541.83 2847.47 1552.31 2843.48 1562.05C2839.64 1571.63 2834.04 1579.98 2826.66 1587.06C2819.44 1594.14 2810.65 1599.74 2800.33 1603.88C2790.15 1607.86 2778.64 1609.85 2765.8 1609.85ZM2870.57 1453.39H2910.41V1538.37L2981.45 1453.39H3006.9V1608.3H2967.06V1523.54L2896.02 1608.3H2870.57V1453.39ZM2943.38 1446.53C2938.07 1446.53 2932.84 1445.93 2927.67 1444.76C2922.66 1443.57 2918.07 1441.66 2913.95 1439C2909.82 1436.35 2906.35 1432.95 2903.55 1428.82C2900.89 1424.54 2899.12 1419.45 2898.23 1413.55H2929C2929.44 1416.35 2930.77 1418.79 2932.98 1420.86C2935.34 1422.77 2938.96 1423.73 2943.82 1423.73C2948.99 1423.73 2952.6 1422.77 2954.67 1420.86C2956.74 1418.79 2957.99 1416.35 2958.43 1413.55H2987.86C2987.57 1417.82 2986.32 1421.96 2984.1 1425.95C2981.89 1429.77 2978.87 1433.25 2975.03 1436.35C2971.19 1439.45 2966.54 1441.95 2961.09 1443.87C2955.77 1445.64 2949.88 1446.53 2943.38 1446.53ZM592 1718.96H723.9V1873.87H684.064V1752.15H631.836V1873.87H592V1718.96ZM828.487 1842.23C834.536 1842.23 840.143 1841.26 845.306 1839.35C850.618 1837.43 855.192 1834.55 859.028 1830.72C862.864 1826.74 865.815 1821.87 867.88 1816.11C870.093 1810.36 871.2 1803.72 871.2 1796.2C871.2 1788.81 870.093 1782.25 867.88 1776.5C865.815 1770.74 862.864 1765.94 859.028 1762.11C855.34 1758.13 850.839 1755.1 845.528 1753.04C840.365 1750.97 834.684 1749.94 828.487 1749.94C822.29 1749.94 816.536 1750.97 811.225 1753.04C806.062 1754.95 801.562 1757.91 797.725 1761.89C794.037 1765.72 791.086 1770.52 788.873 1776.28C786.808 1782.03 785.774 1788.67 785.774 1796.2C785.774 1803.56 786.808 1810.14 788.873 1815.89C790.939 1821.49 793.816 1826.29 797.504 1830.28C801.34 1834.11 805.841 1837.06 811.004 1839.13C816.315 1841.19 822.143 1842.23 828.487 1842.23ZM828.487 1875.42C815.651 1875.42 804.07 1873.58 793.742 1869.89C783.414 1866.05 774.636 1860.66 767.406 1853.74C760.177 1846.8 754.57 1838.47 750.586 1828.73C746.751 1818.99 744.832 1808.15 744.832 1796.2C744.832 1784.98 746.751 1774.57 750.586 1764.99C754.423 1755.25 759.956 1746.84 767.185 1739.76C774.415 1732.52 783.193 1726.93 793.52 1722.94C803.849 1718.8 815.504 1716.75 828.487 1716.75C840.88 1716.75 852.167 1718.66 862.347 1722.5C872.676 1726.18 881.528 1731.57 888.904 1738.66C896.282 1745.58 901.961 1753.93 905.945 1763.66C910.077 1773.4 912.142 1784.24 912.142 1796.2C912.142 1807.4 910.15 1817.88 906.166 1827.62C902.331 1837.2 896.724 1845.55 889.347 1852.63C882.118 1859.71 873.34 1865.31 863.011 1869.45C852.831 1873.43 841.323 1875.42 828.487 1875.42ZM927.138 1875.65C924.334 1875.65 921.531 1875.42 918.728 1874.98L918.507 1840.01C919.243 1840.16 920.129 1840.24 921.162 1840.24C925.736 1840.24 929.424 1838.39 932.228 1834.7C935.178 1830.86 937.391 1825.33 938.867 1818.1C940.489 1810.72 941.523 1801.79 941.965 1791.33C942.555 1780.85 942.85 1768.82 942.85 1755.25V1718.96H1051.07V1873.87H1011.23V1752.15H980.03V1776.72C980.03 1809.18 975.751 1833.82 967.194 1850.64C958.785 1867.3 945.432 1875.65 927.138 1875.65ZM1079.79 1718.96H1119.62V1803.94L1190.66 1718.96H1216.11V1873.87H1176.28V1789.11L1105.24 1873.87H1079.79V1718.96ZM1268.36 1752.15H1234.95V1718.96H1341.62V1752.15H1308.2V1873.87H1268.36V1752.15ZM1360.53 1718.96H1400.36V1803.94L1471.4 1718.96H1496.85V1873.87H1457.02V1789.11L1385.98 1873.87H1360.53V1718.96ZM1565.48 1775.39H1574.78L1609.3 1718.96H1652.46V1723.38L1609.74 1786.68L1665.29 1869.45V1873.87H1618.6L1576.33 1809.47H1565.48V1873.87H1525.65V1718.96H1565.48V1775.39ZM1679.95 1718.96H1719.79V1803.94L1790.83 1718.96H1816.28V1873.87H1776.44V1789.11L1705.4 1873.87H1679.95V1718.96ZM1902.57 1718.96H2034.47V1873.87H1994.63V1752.15H1942.4V1873.87H1902.57V1718.96ZM2063.14 1718.96H2156.09V1752.15H2102.97V1873.87H2063.14V1718.96ZM2269.15 1809.7H2214.71V1873.87H2174.88V1718.96H2214.71V1776.5H2269.15V1718.96H2308.99V1873.87H2269.15V1809.7ZM2337.83 1718.96H2377.66V1803.94L2448.7 1718.96H2474.15V1873.87H2434.32V1789.11L2363.28 1873.87H2337.83V1718.96ZM2531.49 1875.65C2527.66 1875.65 2524.12 1875.2 2520.87 1874.32V1839.57C2521.61 1839.72 2522.42 1839.86 2523.3 1840.01C2524.34 1840.16 2525.67 1840.24 2527.29 1840.24C2531.57 1840.24 2535.03 1839.57 2537.69 1838.24C2540.35 1836.92 2542.78 1833.96 2544.99 1829.39L2489.44 1723.38V1718.96H2529.94L2562.92 1784.69L2589.25 1718.96H2625.99V1723.38L2575.09 1844.88C2572.44 1851.37 2569.34 1856.61 2565.8 1860.6C2562.26 1864.58 2558.57 1867.68 2554.73 1869.89C2550.9 1872.1 2546.98 1873.58 2543 1874.32C2539.02 1875.2 2535.19 1875.65 2531.49 1875.65Z" fill="white"/>
<mask id="mask0_6_119" style="mask-type:luminance" maskUnits="userSpaceOnUse" x="0" y="507" width="783" height="1404">
<path d="M0 507.641H782.485V1910.3H0V507.641Z" fill="white"/>
</mask>
<g mask="url(#mask0_6_119)">
<path d="M311.102 508.351L297.228 508.28L292.75 521.382L12.7509 1338.97L0.405273 1375.01L36.7926 1363.57L241.12 1299.4L58.7444 1791.94L15.1745 1909.59L92.1111 1810.39L648.897 1092.29L677.75 1055.09L631.055 1061.41L360.608 1098.05L760.588 541.051L782.328 510.774L744.993 510.563L311.102 508.351Z" fill="white"/>
</g>
<mask id="mask1_6_119" style="mask-type:luminance" maskUnits="userSpaceOnUse" x="177" y="0" width="1902" height="1376">
<path d="M177.945 917.52L433.363 0L2078.09 457.855L1822.68 1375.38L177.945 917.52Z" fill="white"/>
</mask>
<g mask="url(#mask1_6_119)">
<path d="M280.339 552.968L275.729 569.213L289.628 578.74L1156.91 1173.93L1195.14 1200.18L1193.61 1153.78L1185.06 893.242L1703.06 1267.85L1826.8 1357.35L1735.59 1234.76L1075.31 347.487L1041.11 301.513L1033.28 358.331L987.958 687.406L465.401 36.5884L436.997 1.21289L424.563 44.9227L280.339 552.968Z" fill="white"/>
</g>
</svg>
