<svg width="25" height="28" viewBox="0 0 25 28" xmlns="http://www.w3.org/2000/svg">
<path d="M20.7838 19.4178C21.8805 19.4178 22.9324 19.8535 23.7079 20.629C24.4834 21.4045 24.9191 22.4564 24.9191 23.5531C24.9191 24.6498 24.4834 25.7017 23.7079 26.4772C22.9324 27.2527 21.8805 27.6884 20.7838 27.6884C19.687 27.6884 18.6352 27.2527 17.8597 26.4772C17.0842 25.7017 16.6485 24.6498 16.6485 23.5531C16.6485 22.4564 17.0842 21.4045 17.8597 20.629C18.6352 19.8535 19.687 19.4178 20.7838 19.4178ZM17.3377 2.87672C18.9828 2.87672 20.5606 3.53024 21.7239 4.69351C22.8871 5.85678 23.5406 7.43452 23.5406 9.07963C23.5406 10.7247 22.8871 12.3025 21.7239 13.4658C20.5606 14.629 18.9828 15.2825 17.3377 15.2825H7.68876C6.77481 15.2825 5.89829 15.6456 5.25202 16.2919C4.60576 16.9381 4.2427 17.8147 4.2427 18.7286C4.2427 19.6426 4.60576 20.5191 5.25202 21.1653C5.89829 21.8116 6.77481 22.1747 7.68876 22.1747H13.8917C14.2572 22.1747 14.6079 22.3199 14.8664 22.5784C15.1249 22.8369 15.2701 23.1875 15.2701 23.5531C15.2701 23.9187 15.1249 24.2693 14.8664 24.5278C14.6079 24.7863 14.2572 24.9315 13.8917 24.9315H7.68876C6.04364 24.9315 4.46591 24.278 3.30264 23.1147C2.13937 21.9515 1.48585 20.3737 1.48585 18.7286C1.48585 17.0835 2.13937 15.5058 3.30264 14.3425C4.46591 13.1792 6.04364 12.5257 7.68876 12.5257H17.3377C18.2517 12.5257 19.1282 12.1626 19.7745 11.5164C20.4207 10.8701 20.7838 9.99359 20.7838 9.07963C20.7838 8.16568 20.4207 7.28916 19.7745 6.6429C19.1282 5.99664 18.2517 5.63357 17.3377 5.63357H11.1348C10.7692 5.63357 10.4186 5.48835 10.1601 5.22984C9.90162 4.97134 9.75639 4.62073 9.75639 4.25515C9.75639 3.88957 9.90162 3.53896 10.1601 3.28045C10.4186 3.02195 10.7692 2.87672 11.1348 2.87672H17.3377ZM4.2427 0.119873C5.33944 0.119873 6.39126 0.555553 7.16678 1.33107C7.94229 2.10658 8.37797 3.1584 8.37797 4.25515C8.37797 5.35189 7.94229 6.40371 7.16678 7.17923C6.39126 7.95474 5.33944 8.39042 4.2427 8.39042C3.14595 8.39042 2.09413 7.95474 1.31862 7.17923C0.543101 6.40371 0.107422 5.35189 0.107422 4.25515C0.107422 3.1584 0.543101 2.10658 1.31862 1.33107C2.09413 0.555553 3.14595 0.119873 4.2427 0.119873Z" />
</svg>
