<svg width="30" height="32" viewBox="0 0 30 32" fill="none" xmlns="http://www.w3.org/2000/svg">
<path d="M15.1224 19.0547C14.6761 19.0547 14.3017 18.9035 13.9992 18.601C13.6967 18.2986 13.546 17.9247 13.5471 17.4794C13.5471 17.0331 13.6983 16.6586 14.0008 16.3562C14.3032 16.0537 14.6771 15.903 15.1224 15.9041C15.5688 15.9041 15.9432 16.0553 16.2456 16.3578C16.5481 16.6602 16.6988 17.0341 16.6978 17.4794C16.6978 17.9258 16.5465 18.3002 16.2441 18.6026C15.9416 18.9051 15.5677 19.0558 15.1224 19.0547ZM8.82105 19.0547C8.3747 19.0547 8.0003 18.9035 7.69783 18.601C7.39537 18.2986 7.24466 17.9247 7.24571 17.4794C7.24571 17.0331 7.39694 16.6586 7.69941 16.3562C8.00187 16.0537 8.37575 15.903 8.82105 15.9041C9.2674 15.9041 9.64181 16.0553 9.94427 16.3578C10.2467 16.6602 10.3974 17.0341 10.3964 17.4794C10.3964 17.9258 10.2452 18.3002 9.9427 18.6026C9.64023 18.9051 9.26635 19.0558 8.82105 19.0547ZM21.4238 19.0547C20.9774 19.0547 20.603 18.9035 20.3006 18.601C19.9981 18.2986 19.8474 17.9247 19.8484 17.4794C19.8484 17.0331 19.9997 16.6586 20.3021 16.3562C20.6046 16.0537 20.9785 15.903 21.4238 15.9041C21.8701 15.9041 22.2445 16.0553 22.547 16.3578C22.8495 16.6602 23.0002 17.0341 22.9991 17.4794C22.9991 17.9258 22.8479 18.3002 22.5454 18.6026C22.243 18.9051 21.8691 19.0558 21.4238 19.0547ZM15.1224 25.3561C14.6761 25.3561 14.3017 25.2049 13.9992 24.9024C13.6967 24.6 13.546 24.2261 13.5471 23.7808C13.5471 23.3344 13.6983 22.96 14.0008 22.6576C14.3032 22.3551 14.6771 22.2044 15.1224 22.2054C15.5688 22.2054 15.9432 22.3567 16.2456 22.6591C16.5481 22.9616 16.6988 23.3355 16.6978 23.7808C16.6978 24.2271 16.5465 24.6015 16.2441 24.904C15.9416 25.2065 15.5677 25.3572 15.1224 25.3561ZM8.82105 25.3561C8.3747 25.3561 8.0003 25.2049 7.69783 24.9024C7.39537 24.6 7.24466 24.2261 7.24571 23.7808C7.24571 23.3344 7.39694 22.96 7.69941 22.6576C8.00187 22.3551 8.37575 22.2044 8.82105 22.2054C9.2674 22.2054 9.64181 22.3567 9.94427 22.6591C10.2467 22.9616 10.3974 23.3355 10.3964 23.7808C10.3964 24.2271 10.2452 24.6015 9.9427 24.904C9.64023 25.2065 9.26635 25.3572 8.82105 25.3561ZM21.4238 25.3561C20.9774 25.3561 20.603 25.2049 20.3006 24.9024C19.9981 24.6 19.8474 24.2261 19.8484 23.7808C19.8484 23.3344 19.9997 22.96 20.3021 22.6576C20.6046 22.3551 20.9785 22.2044 21.4238 22.2054C21.8701 22.2054 22.2445 22.3567 22.547 22.6591C22.8495 22.9616 23.0002 23.3355 22.9991 23.7808C22.9991 24.2271 22.8479 24.6015 22.5454 24.904C22.243 25.2065 21.8691 25.3572 21.4238 25.3561ZM4.09502 31.6575C3.22859 31.6575 2.4866 31.3487 1.86906 30.7312C1.25153 30.1137 0.943288 29.3722 0.944339 28.5068V6.45201C0.944339 5.58557 1.25311 4.84358 1.87064 4.22605C2.48817 3.60851 3.22964 3.30027 4.09502 3.30132H5.67037V0.150635H8.82105V3.30132H21.4238V0.150635H24.5745V3.30132H26.1498C27.0163 3.30132 27.7582 3.61009 28.3758 4.22762C28.9933 4.84516 29.3016 5.58662 29.3005 6.45201V28.5068C29.3005 29.3732 28.9917 30.1152 28.3742 30.7328C27.7567 31.3503 27.0152 31.6585 26.1498 31.6575H4.09502ZM4.09502 28.5068H26.1498V12.7534H4.09502V28.5068Z" fill="#FEFEFE"/>
</svg>
